<svg width="25" height="20" viewBox="0 0 25 20" fill="none" xmlns="http://www.w3.org/2000/svg">
<path d="M13.1608 10.781C12.9623 10.6494 12.7281 10.5791 12.4885 10.5791C12.2489 10.5791 12.0148 10.6494 11.8162 10.781C11.6842 10.8752 8.58685 12.971 8.58685 16.1735C8.58685 17.1883 8.99792 18.1616 9.72962 18.8792C10.4613 19.5969 11.4537 20 12.4885 20C13.5233 20 14.5157 19.5969 15.2474 18.8792C15.9791 18.1616 16.3902 17.1883 16.3902 16.1735C16.3902 12.9357 13.2929 10.8634 13.1608 10.781ZM12.4885 17.6452C12.0905 17.6452 11.7088 17.4902 11.4274 17.2142C11.146 16.9382 10.9879 16.5638 10.9879 16.1735C11.0867 15.0572 11.6249 14.0225 12.4885 13.2889C13.3573 14.0185 13.8967 15.0554 13.9892 16.1735C13.9892 16.5638 13.8311 16.9382 13.5496 17.2142C13.2682 17.4902 12.8865 17.6452 12.4885 17.6452ZM20.1958 4.95294C19.4623 3.29989 18.1964 1.92832 16.592 1.04839C14.9876 0.168471 13.1333 -0.171259 11.3132 0.0812643C9.49309 0.333788 7.80762 1.16463 6.51506 2.44648C5.22251 3.72834 4.39415 5.39048 4.15695 7.17821C3.05147 7.44425 2.0783 8.08677 1.411 8.99116C0.7437 9.89556 0.425671 11.003 0.513634 12.116C0.601597 13.229 1.08983 14.2752 1.89126 15.068C2.69269 15.8607 3.75519 16.3485 4.88926 16.4443H4.9853C5.28774 16.4452 5.57939 16.3342 5.80197 16.1334C6.02454 15.9326 6.16162 15.6567 6.18582 15.3611C6.19895 15.2064 6.18075 15.0506 6.13226 14.9028C6.08378 14.755 6.00597 14.6181 5.90332 14.4999C5.80067 14.3818 5.6752 14.2846 5.53413 14.2142C5.39306 14.1438 5.23918 14.1014 5.08134 14.0895C4.48468 14.0396 3.92857 13.7728 3.52212 13.3415C3.11567 12.9102 2.88822 12.3455 2.8844 11.7583C2.8844 11.1337 3.13737 10.5348 3.58765 10.0932C4.03793 9.65157 4.64864 9.40348 5.28543 9.40348C5.60383 9.40348 5.90918 9.27944 6.13432 9.05863C6.35946 8.83783 6.48595 8.53835 6.48595 8.22609C6.48901 6.83356 6.99531 5.48719 7.91488 4.42616C8.83446 3.36513 10.1078 2.65815 11.5086 2.43082C12.9094 2.2035 14.3471 2.47054 15.5661 3.18451C16.7852 3.89848 17.7067 5.01315 18.167 6.33049C18.2356 6.53281 18.3589 6.71306 18.5239 6.852C18.6888 6.99093 18.8891 7.08333 19.1034 7.11934C19.8874 7.25997 20.6017 7.65167 21.1343 8.23308C21.667 8.8145 21.988 9.55278 22.0471 10.3323C22.1061 11.1118 21.8998 11.8885 21.4605 12.5407C21.0213 13.1929 20.3738 13.6838 19.6196 13.9364C19.3281 14.0417 19.0896 14.2537 18.9541 14.5278C18.8186 14.802 18.7968 15.1169 18.8932 15.4065C18.9895 15.6961 19.1966 15.9378 19.4708 16.0809C19.7451 16.2239 20.0652 16.2571 20.3639 16.1735C21.5728 15.7777 22.6219 15.0149 23.3593 13.9954C24.0967 12.9759 24.4841 11.7527 24.4653 10.5029C24.4466 9.25311 24.0228 8.04159 23.2552 7.04379C22.4876 6.04599 21.4161 5.31369 20.1958 4.95294Z" fill="white"/>
</svg>
