<svg width="19" height="20" viewBox="0 0 19 20" fill="none" xmlns="http://www.w3.org/2000/svg">
<path d="M13.9192 13.3542C13.3063 14.0102 12.1092 15.2917 11.1434 16.3256C10.3528 17.1718 9.01189 17.1717 8.22132 16.3254C7.27333 15.3106 6.09725 14.0517 5.44566 13.3542C3.10576 10.8494 3.10576 6.78845 5.44566 4.28371C7.78555 1.77897 11.5793 1.77897 13.9192 4.28371C16.2591 6.78845 16.2591 10.8494 13.9192 13.3542Z" stroke="white" stroke-width="1.5" stroke-linecap="round" stroke-linejoin="round"/>
<path d="M11.9293 8.81894C11.9293 10.1473 10.9233 11.2241 9.68241 11.2241C8.4415 11.2241 7.43553 10.1473 7.43553 8.81894C7.43553 7.4906 8.4415 6.41377 9.68241 6.41377C10.9233 6.41377 11.9293 7.4906 11.9293 8.81894Z" stroke="white" stroke-width="1.5" stroke-linecap="round" stroke-linejoin="round"/>
</svg>
