<svg width="25" height="20" viewBox="0 0 25 20" fill="none" xmlns="http://www.w3.org/2000/svg">
<path d="M13.5381 10.781C13.3396 10.6494 13.1055 10.5791 12.8658 10.5791C12.6262 10.5791 12.3921 10.6494 12.1936 10.781C12.0615 10.8752 8.96417 12.971 8.96417 16.1735C8.96417 17.1883 9.37524 18.1616 10.1069 18.8792C10.8386 19.5969 11.8311 20 12.8658 20C13.9006 20 14.893 19.5969 15.6247 18.8792C16.3564 18.1616 16.7675 17.1883 16.7675 16.1735C16.7675 12.9357 13.6702 10.8634 13.5381 10.781ZM12.8658 17.6452C12.4678 17.6452 12.0862 17.4902 11.8047 17.2142C11.5233 16.9382 11.3652 16.5638 11.3652 16.1735C11.464 15.0572 12.0023 14.0225 12.8658 13.2889C13.7346 14.0185 14.274 15.0554 14.3665 16.1735C14.3665 16.5638 14.2084 16.9382 13.927 17.2142C13.6455 17.4902 13.2638 17.6452 12.8658 17.6452ZM20.5731 4.95294C19.8396 3.29989 18.5737 1.92832 16.9693 1.04839C15.3649 0.168471 13.5106 -0.171259 11.6905 0.0812643C9.87041 0.333788 8.18494 1.16463 6.89238 2.44648C5.59982 3.72834 4.77147 5.39048 4.53427 7.17821C3.42879 7.44425 2.45562 8.08677 1.78832 8.99116C1.12102 9.89556 0.80299 11.003 0.890954 12.116C0.978917 13.229 1.46715 14.2752 2.26858 15.068C3.07 15.8607 4.13251 16.3485 5.26658 16.4443H5.36262C5.66506 16.4452 5.95671 16.3342 6.17929 16.1334C6.40186 15.9326 6.53894 15.6567 6.56314 15.3611C6.57627 15.2064 6.55806 15.0506 6.50958 14.9028C6.4611 14.755 6.38329 14.6181 6.28064 14.4999C6.17799 14.3818 6.05252 14.2846 5.91145 14.2142C5.77038 14.1438 5.6165 14.1014 5.45866 14.0895C4.862 14.0396 4.30589 13.7728 3.89944 13.3415C3.49299 12.9102 3.26554 12.3455 3.26172 11.7583C3.26172 11.1337 3.51468 10.5348 3.96497 10.0932C4.41525 9.65157 5.02596 9.40348 5.66275 9.40348C5.98115 9.40348 6.2865 9.27944 6.51164 9.05863C6.73678 8.83783 6.86327 8.53835 6.86327 8.22609C6.86633 6.83356 7.37263 5.48719 8.2922 4.42616C9.21178 3.36513 10.4851 2.65815 11.8859 2.43082C13.2868 2.2035 14.7244 2.47054 15.9434 3.18451C17.1625 3.89848 18.084 5.01315 18.5443 6.33049C18.6129 6.53281 18.7363 6.71306 18.9012 6.852C19.0661 6.99093 19.2664 7.08333 19.4807 7.11934C20.2647 7.25997 20.979 7.65167 21.5117 8.23308C22.0444 8.8145 22.3654 9.55278 22.4244 10.3323C22.4834 11.1118 22.2771 11.8885 21.8379 12.5407C21.3986 13.1929 20.7511 13.6838 19.9969 13.9364C19.7054 14.0417 19.4669 14.2537 19.3314 14.5278C19.196 14.802 19.1741 15.1169 19.2705 15.4065C19.3668 15.6961 19.5739 15.9378 19.8482 16.0809C20.1224 16.2239 20.4425 16.2571 20.7412 16.1735C21.9501 15.7777 22.9992 15.0149 23.7366 13.9954C24.474 12.9759 24.8614 11.7527 24.8427 10.5029C24.8239 9.25311 24.4001 8.04159 23.6325 7.04379C22.8649 6.04599 21.7934 5.31369 20.5731 4.95294Z" fill="white"/>
</svg>
