<svg width="13" height="22" viewBox="0 0 13 22" fill="none" xmlns="http://www.w3.org/2000/svg">
<path d="M7.48666 14.28V4.5C7.48666 4.23478 7.38144 3.98043 7.19417 3.79289C7.00689 3.60536 6.75289 3.5 6.48804 3.5C6.22319 3.5 5.96919 3.60536 5.78192 3.79289C5.59464 3.98043 5.48943 4.23478 5.48943 4.5V14.28C5.18757 14.4545 4.93658 14.7051 4.76139 15.0068C4.5862 15.3086 4.49292 15.651 4.49082 16C4.49082 16.5304 4.70124 17.0391 5.07579 17.4142C5.45034 17.7893 5.95834 18 6.48804 18C7.01774 18 7.52574 17.7893 7.90029 17.4142C8.27485 17.0391 8.48527 16.5304 8.48527 16C8.48316 15.651 8.38988 15.3086 8.21469 15.0068C8.03951 14.7051 7.78851 14.4545 7.48666 14.28ZM10.9818 12V4.5C10.9818 3.30653 10.5084 2.16193 9.66561 1.31802C8.82287 0.474106 7.67986 0 6.48804 0C5.29622 0 4.15322 0.474106 3.31048 1.31802C2.46773 2.16193 1.99428 3.30653 1.99428 4.5V12C1.30408 12.7832 0.830028 13.7333 0.619006 14.7562C0.407983 15.7792 0.467307 16.8396 0.791109 17.8326C1.11491 18.8255 1.69197 19.7166 2.46521 20.4177C3.23845 21.1188 4.18107 21.6056 5.19983 21.83C5.62303 21.9266 6.0543 21.9835 6.48804 22C7.64706 22.0054 8.78276 21.6741 9.75752 21.0461C10.7323 20.4182 11.5042 19.5207 11.9799 18.4623C12.4555 17.4038 12.6144 16.23 12.4372 15.083C12.2601 13.936 11.7545 12.8651 10.9818 12ZM8.98458 19.07C8.4586 19.4982 7.83245 19.7854 7.16508 19.9044C6.4977 20.0234 5.81105 19.9704 5.16978 19.7504C4.5285 19.5303 3.9537 19.1505 3.4995 18.6465C3.04529 18.1426 2.72661 17.5313 2.57348 16.87C2.4192 16.2015 2.43921 15.5046 2.63158 14.8461C2.82395 14.1876 3.18222 13.5898 3.67195 13.11C3.76631 13.0174 3.84138 12.9069 3.8928 12.7851C3.94423 12.6632 3.97099 12.5323 3.97154 12.4V4.5C3.97154 3.83696 4.23456 3.20107 4.70275 2.73223C5.17095 2.26339 5.80595 2 6.46807 2C7.13019 2 7.76519 2.26339 8.23338 2.73223C8.70158 3.20107 8.9646 3.83696 8.9646 4.5V12.44C8.96515 12.5723 8.99191 12.7032 9.04334 12.8251C9.09476 12.9469 9.16983 13.0574 9.26419 13.15C9.67237 13.5449 9.99184 14.0223 10.2013 14.5505C10.4108 15.0787 10.5054 15.6456 10.479 16.2133C10.4525 16.781 10.3056 17.3366 10.0479 17.843C9.79019 18.3493 9.42771 18.7949 8.98458 19.15V19.07Z" fill="white"/>
</svg>
