<svg width="23" height="22" viewBox="0 0 23 22" fill="none" xmlns="http://www.w3.org/2000/svg">
<path d="M1.36202 9.9C1.14477 9.9 0.932388 9.96451 0.751745 10.0854C0.571102 10.2063 0.430308 10.378 0.347167 10.579C0.264026 10.78 0.242272 11.0012 0.284657 11.2146C0.327042 11.428 0.431662 11.624 0.585286 11.7778C0.73891 11.9317 0.93464 12.0364 1.14772 12.0789C1.36081 12.1213 1.58167 12.0995 1.78239 12.0163C1.98311 11.933 2.15467 11.792 2.27537 11.6111C2.39607 11.4302 2.4605 11.2176 2.4605 11C2.4605 10.7083 2.34477 10.4285 2.13876 10.2222C1.93276 10.0159 1.65336 9.9 1.36202 9.9ZM3.48208 17.226C3.3278 17.3796 3.22253 17.5756 3.17962 17.7891C3.1367 18.0027 3.15807 18.2242 3.24102 18.4256C3.32397 18.6269 3.46476 18.7991 3.64555 18.9203C3.82633 19.0414 4.03897 19.1061 4.2565 19.1061C4.47404 19.1061 4.68668 19.0414 4.86746 18.9203C5.04825 18.7991 5.18904 18.6269 5.27199 18.4256C5.35493 18.2242 5.37631 18.0027 5.33339 17.7891C5.29048 17.5756 5.18521 17.3796 5.03093 17.226C4.82512 17.0211 4.54671 16.9061 4.2565 16.9061C3.9663 16.9061 3.68789 17.0211 3.48208 17.226ZM5.03093 4.774C5.18521 4.62042 5.29048 4.42444 5.33339 4.21088C5.37631 3.99732 5.35493 3.77581 5.27199 3.57443C5.18904 3.37305 5.04825 3.20087 4.86746 3.07971C4.68668 2.95855 4.47404 2.89387 4.2565 2.89387C4.03897 2.89387 3.82633 2.95855 3.64555 3.07971C3.46476 3.20087 3.32397 3.37305 3.24102 3.57443C3.15807 3.77581 3.1367 3.99732 3.17962 4.21088C3.22253 4.42444 3.3278 4.62042 3.48208 4.774C3.68789 4.97888 3.9663 5.09387 4.2565 5.09387C4.54671 5.09387 4.82512 4.97888 5.03093 4.774ZM11.2483 2.2C11.4656 2.2 11.6779 2.13549 11.8586 2.01462C12.0392 1.89375 12.18 1.72195 12.2632 1.52095C12.3463 1.31995 12.368 1.09878 12.3257 0.885401C12.2833 0.672022 12.1787 0.476021 12.025 0.322183C11.8714 0.168345 11.6757 0.0635804 11.4626 0.0211367C11.2495 -0.0213071 11.0286 0.000476609 10.8279 0.083733C10.6272 0.166989 10.4556 0.307979 10.3349 0.488873C10.2142 0.669767 10.1498 0.882441 10.1498 1.1C10.1498 1.39174 10.2656 1.67153 10.4716 1.87782C10.6776 2.08411 10.957 2.2 11.2483 2.2ZM17.4657 17.226C17.3114 17.3796 17.2061 17.5756 17.1632 17.7891C17.1203 18.0027 17.1417 18.2242 17.2246 18.4256C17.3075 18.6269 17.4483 18.7991 17.6291 18.9203C17.8099 19.0414 18.0225 19.1061 18.2401 19.1061C18.4576 19.1061 18.6703 19.0414 18.851 18.9203C19.0318 18.7991 19.1726 18.6269 19.2556 18.4256C19.3385 18.2242 19.3599 18.0027 19.317 17.7891C19.2741 17.5756 19.1688 17.3796 19.0145 17.226C18.8087 17.0211 18.5303 16.9061 18.2401 16.9061C17.9499 16.9061 17.6715 17.0211 17.4657 17.226ZM21.1346 9.9C20.9173 9.9 20.7049 9.96451 20.5243 10.0854C20.3436 10.2063 20.2028 10.378 20.1197 10.579C20.0366 10.78 20.0148 11.0012 20.0572 11.2146C20.0996 11.428 20.2042 11.624 20.3578 11.7778C20.5114 11.9317 20.7072 12.0364 20.9203 12.0789C21.1333 12.1213 21.3542 12.0995 21.5549 12.0163C21.7556 11.933 21.9272 11.792 22.0479 11.6111C22.1686 11.4302 22.233 11.2176 22.233 11C22.233 10.7083 22.1173 10.4285 21.9113 10.2222C21.7053 10.0159 21.4259 9.9 21.1346 9.9ZM17.4657 3.223C17.3114 3.37658 17.2061 3.57256 17.1632 3.78612C17.1203 3.99968 17.1417 4.22119 17.2246 4.42257C17.3075 4.62395 17.4483 4.79613 17.6291 4.91729C17.8099 5.03845 18.0225 5.10313 18.2401 5.10313C18.4576 5.10313 18.6703 5.03845 18.851 4.91729C19.0318 4.79613 19.1726 4.62395 19.2556 4.42257C19.3385 4.22119 19.3599 3.99968 19.317 3.78612C19.2741 3.57256 19.1688 3.37658 19.0145 3.223C18.8087 3.01812 18.5303 2.90313 18.2401 2.90313C17.9499 2.90313 17.6715 3.01812 17.4657 3.223ZM11.2483 19.8C11.031 19.8 10.8187 19.8645 10.638 19.9854C10.4574 20.1063 10.3166 20.278 10.2334 20.479C10.1503 20.68 10.1285 20.9012 10.1709 21.1146C10.2133 21.328 10.3179 21.524 10.4716 21.6778C10.6252 21.8317 10.8209 21.9364 11.034 21.9789C11.2471 22.0213 11.4679 21.9995 11.6687 21.9163C11.8694 21.833 12.0409 21.692 12.1616 21.5111C12.2823 21.3302 12.3468 21.1176 12.3468 20.9C12.3468 20.6083 12.231 20.3285 12.025 20.1222C11.819 19.9159 11.5396 19.8 11.2483 19.8ZM11.2483 4.4C9.94475 4.4 8.67047 4.78708 7.58662 5.5123C6.50276 6.23752 5.65799 7.2683 5.15915 8.47429C4.6603 9.68028 4.52978 11.0073 4.78409 12.2876C5.0384 13.5679 5.66612 14.7439 6.58786 15.6669C7.50961 16.5899 8.68398 17.2185 9.96248 17.4732C11.241 17.7278 12.5662 17.5971 13.7705 17.0976C14.9748 16.5981 16.0042 15.7521 16.7284 14.6668C17.4526 13.5814 17.8391 12.3054 17.8391 11C17.8391 9.24957 17.1447 7.57084 15.9087 6.3331C14.6727 5.09536 12.9963 4.4 11.2483 4.4ZM11.2483 15.4C10.3793 15.4 9.52975 15.1419 8.80717 14.6585C8.0846 14.175 7.52142 13.4878 7.18886 12.6838C6.8563 11.8798 6.76928 10.9951 6.93882 10.1416C7.10836 9.28809 7.52684 8.50408 8.14134 7.88873C8.75584 7.27338 9.53875 6.85432 10.3911 6.68454C11.2434 6.51477 12.1269 6.6019 12.9298 6.93493C13.7326 7.26796 14.4189 7.83191 14.9017 8.55549C15.3845 9.27907 15.6422 10.1298 15.6422 11C15.6422 12.167 15.1793 13.2861 14.3552 14.1113C13.5312 14.9364 12.4136 15.4 11.2483 15.4Z" fill="white"/>
</svg>
