<svg width="17" height="23" viewBox="0 0 17 23" fill="none" xmlns="http://www.w3.org/2000/svg">
<path d="M15.7989 3.45L6.57739 2.6795L3.15358 2.392V1.15C3.15358 0.845001 3.03334 0.552494 2.81931 0.336827C2.60528 0.12116 2.31499 0 2.0123 0C1.70962 0 1.41933 0.12116 1.2053 0.336827C0.991274 0.552494 0.871033 0.845001 0.871033 1.15V21.85C0.871033 22.155 0.991274 22.4475 1.2053 22.6632C1.41933 22.8788 1.70962 23 2.0123 23C2.31499 23 2.60528 22.8788 2.81931 22.6632C3.03334 22.4475 3.15358 22.155 3.15358 21.85V13.708L6.57739 13.4205L15.7989 12.65C16.0855 12.6268 16.3528 12.4955 16.5475 12.2823C16.7421 12.0691 16.8498 11.7897 16.8488 11.5V4.6C16.8498 4.31029 16.7421 4.03091 16.5475 3.8177C16.3528 3.60449 16.0855 3.47318 15.7989 3.45ZM5.43612 11.2125L3.15358 11.3965V4.7035L5.43612 4.8875V11.2125ZM10.0012 10.8215L7.71866 11.017V5.083L10.0012 5.2785V10.8215ZM14.5663 10.442L12.2837 10.6375V5.4625L14.5663 5.658V10.442Z" fill="white"/>
</svg>
