<svg width="24" height="22" viewBox="0 0 24 22" fill="none" xmlns="http://www.w3.org/2000/svg">
<path d="M1.47374 7.33333C1.71283 7.33333 1.94655 7.26165 2.14534 7.12735C2.34413 6.99305 2.49907 6.80217 2.59057 6.57884C2.68206 6.3555 2.706 6.10976 2.65936 5.87267C2.61272 5.63558 2.49758 5.4178 2.32852 5.24687C2.15946 5.07594 1.94407 4.95953 1.70957 4.91237C1.47508 4.86521 1.23202 4.88942 1.01113 4.98193C0.790246 5.07443 0.60145 5.23109 0.46862 5.43208C0.33579 5.63307 0.264893 5.86938 0.264893 6.11111C0.264893 6.43526 0.392253 6.74614 0.618956 6.97535C0.845659 7.20456 1.15313 7.33333 1.47374 7.33333ZM6.30913 7.33333H14.7711C15.7329 7.33333 16.6553 6.94703 17.3354 6.25939C18.0155 5.57176 18.3976 4.63913 18.3976 3.66667C18.3976 2.69421 18.0155 1.76158 17.3354 1.07394C16.6553 0.386309 15.7329 0 14.7711 0C14.1351 0.00266011 13.5106 0.171042 12.9578 0.488889C12.8193 0.568737 12.6977 0.675502 12.6002 0.803038C12.5027 0.930573 12.4311 1.07636 12.3895 1.232C12.3479 1.38763 12.3372 1.55005 12.358 1.70989C12.3787 1.86973 12.4306 2.02384 12.5105 2.16333C12.5905 2.30236 12.6968 2.42407 12.8234 2.52147C12.95 2.61887 13.0944 2.69004 13.2482 2.73092C13.4021 2.7718 13.5624 2.78157 13.72 2.75967C13.8776 2.73778 14.0294 2.68465 14.1666 2.60333C14.3526 2.50216 14.5599 2.44767 14.7711 2.44444C15.0917 2.44444 15.3991 2.57321 15.6258 2.80243C15.8525 3.03164 15.9799 3.34251 15.9799 3.66667C15.9799 3.99082 15.8525 4.3017 15.6258 4.53091C15.3991 4.76012 15.0917 4.88889 14.7711 4.88889H6.30913C5.98852 4.88889 5.68105 5.01766 5.45435 5.24687C5.22764 5.47608 5.10028 5.78696 5.10028 6.11111C5.10028 6.43526 5.22764 6.74614 5.45435 6.97535C5.68105 7.20456 5.98852 7.33333 6.30913 7.33333ZM1.47374 12.2222H9.93567C10.2563 12.2222 10.5638 12.0935 10.7905 11.8642C11.0172 11.635 11.1445 11.3242 11.1445 11C11.1445 10.6758 11.0172 10.365 10.7905 10.1358C10.5638 9.90655 10.2563 9.77778 9.93567 9.77778H1.47374C1.15313 9.77778 0.845659 9.90655 0.618956 10.1358C0.392253 10.365 0.264893 10.6758 0.264893 11C0.264893 11.3242 0.392253 11.635 0.618956 11.8642C0.845659 12.0935 1.15313 12.2222 1.47374 12.2222ZM22.0241 7.33333C22.2632 7.33333 22.497 7.26165 22.6957 7.12735C22.8945 6.99305 23.0495 6.80217 23.141 6.57884C23.2325 6.3555 23.2564 6.10976 23.2098 5.87267C23.1631 5.63558 23.048 5.4178 22.8789 5.24687C22.7099 5.07594 22.4945 4.95953 22.26 4.91237C22.0255 4.86521 21.7824 4.88942 21.5615 4.98193C21.3407 5.07443 21.1519 5.23109 21.019 5.43208C20.8862 5.63307 20.8153 5.86938 20.8153 6.11111C20.8153 6.43526 20.9427 6.74614 21.1694 6.97535C21.3961 7.20456 21.7035 7.33333 22.0241 7.33333ZM19.6065 9.77778H14.7711C14.4505 9.77778 14.143 9.90655 13.9163 10.1358C13.6896 10.365 13.5622 10.6758 13.5622 11C13.5622 11.3242 13.6896 11.635 13.9163 11.8642C14.143 12.0935 14.4505 12.2222 14.7711 12.2222H19.6065C19.9271 12.2222 20.2345 12.351 20.4612 12.5802C20.6879 12.8094 20.8153 13.1203 20.8153 13.4444C20.8153 13.7686 20.6879 14.0795 20.4612 14.3087C20.2345 14.5379 19.9271 14.6667 19.6065 14.6667C19.2858 14.6667 18.9784 14.7954 18.7517 15.0246C18.525 15.2539 18.3976 15.5647 18.3976 15.8889C18.3976 16.213 18.525 16.5239 18.7517 16.7531C18.9784 16.9823 19.2858 17.1111 19.6065 17.1111C20.5683 17.1111 21.4907 16.7248 22.1708 16.0372C22.8509 15.3495 23.233 14.4169 23.233 13.4444C23.233 12.472 22.8509 11.5394 22.1708 10.8517C21.4907 10.1641 20.5683 9.77778 19.6065 9.77778ZM12.3534 14.6667H7.51798C7.19737 14.6667 6.8899 14.7954 6.66319 15.0246C6.43649 15.2539 6.30913 15.5647 6.30913 15.8889C6.30913 16.213 6.43649 16.5239 6.66319 16.7531C6.8899 16.9823 7.19737 17.1111 7.51798 17.1111H12.3534C12.674 17.1111 12.9814 17.2399 13.2082 17.4691C13.4349 17.6983 13.5622 18.0092 13.5622 18.3333C13.5622 18.6575 13.4349 18.9684 13.2082 19.1976C12.9814 19.4268 12.674 19.5556 12.3534 19.5556C12.1422 19.5523 11.9349 19.4978 11.7489 19.3967C11.6114 19.3082 11.4575 19.2489 11.2966 19.2221C11.1357 19.1953 10.9712 19.2018 10.8128 19.241C10.6545 19.2802 10.5056 19.3514 10.3752 19.4503C10.2447 19.5492 10.1354 19.6738 10.0538 19.8165C9.97225 19.9592 9.92006 20.1171 9.9004 20.2807C9.88074 20.4444 9.89402 20.6103 9.93945 20.7687C9.98487 20.927 10.0615 21.0744 10.1647 21.2019C10.2679 21.3295 10.3956 21.4347 10.5401 21.5111C11.0929 21.829 11.7174 21.9973 12.3534 22C13.3152 22 14.2376 21.6137 14.9177 20.9261C15.5978 20.2384 15.9799 19.3058 15.9799 18.3333C15.9799 17.3609 15.5978 16.4282 14.9177 15.7406C14.2376 15.053 13.3152 14.6667 12.3534 14.6667ZM2.68259 14.6667H1.47374C1.15313 14.6667 0.845659 14.7954 0.618956 15.0246C0.392253 15.2539 0.264893 15.5647 0.264893 15.8889C0.264893 16.213 0.392253 16.5239 0.618956 16.7531C0.845659 16.9823 1.15313 17.1111 1.47374 17.1111H2.68259C3.00319 17.1111 3.31067 16.9823 3.53737 16.7531C3.76407 16.5239 3.89143 16.213 3.89143 15.8889C3.89143 15.5647 3.76407 15.2539 3.53737 15.0246C3.31067 14.7954 3.00319 14.6667 2.68259 14.6667Z" fill="white"/>
</svg>
